<?xml version="1.0" encoding="iso-8859-1"?>
<!-- Generator: Adobe Illustrator 19.0.0, SVG Export Plug-In . SVG Version: 6.00 Build 0)  -->
<svg version="1.1" id="Layer_1" xmlns="http://www.w3.org/2000/svg" xmlns:xlink="http://www.w3.org/1999/xlink" x="0px" y="0px"
	 viewBox="0 0 512 512" style="enable-background:new 0 0 512 512;" xml:space="preserve">
<path style="fill:#A4E276;" d="M485.225,255.68l-20.278-0.011c2.618-41.678-6.081-83.914-25.319-121.361
	C415.401,87.147,377.01,50.647,328.608,28.752c-56.632-25.62-119.851-27.654-178.01-5.724s-104.3,65.196-129.92,121.83
	c-52.84,116.807-0.897,254.804,115.797,307.788c0.102,0.048,0.205,0.096,0.309,0.143c11.045,4.995,22.414,8.375,33.844,10.252
	c7.27,1.195,14.561,1.788,21.812,1.788c15.025,0,29.856-2.528,43.904-7.319c25.22-8.606,47.887-24.554,64.485-46.551
	c5.92-7.847,11.073-16.46,15.29-25.783c3.066-6.776,5.538-13.722,7.439-20.768c5.504-20.414,6.131-41.689,1.895-62.257
	l113.195,0.081c0.006,0,0.011,0,0.017,0c0.189,0,0.374-0.02,0.562-0.025l45.977,0.025c0.005,0,0.008,0,0.012,0
	c12.848,0,23.268-10.412,23.275-23.263C508.496,266.113,498.079,255.686,485.225,255.68z"/>
<circle style="fill:#57575C;" cx="190.796" cy="329.859" r="27.93"/>
<path style="fill:#A9A8AE;" d="M488.724,348.89c-10.129,0-18.724,6.483-21.922,15.517H323.556
	c-1.901,7.046-4.373,13.992-7.439,20.768c-4.217,9.323-9.369,17.936-15.29,25.783h164.622v46.551H236.343
	c-14.047,4.792-28.879,7.319-43.904,7.319c-7.251,0-14.542-0.593-21.812-1.788v17.744c0,12.854,10.421,23.275,23.275,23.275h294.822
	c12.854,0,23.275-10.421,23.275-23.275v-93.102v-15.517C512,359.311,501.58,348.89,488.724,348.89z"/>
<path style="fill:#64C37D;" d="M150.598,23.028c-58.159,21.93-104.3,65.196-129.92,121.83
	c-52.84,116.807-0.897,254.804,115.797,307.788c0.102,0.048,0.205,0.096,0.309,0.143c11.045,4.995,22.414,8.375,33.844,10.252
	c7.27,1.195,14.561,1.788,21.812,1.788c15.025,0,29.856-2.528,43.904-7.319V7.983C207.453,7.536,178.446,12.528,150.598,23.028z
	 M190.799,357.794c-15.425,0-27.93-12.504-27.93-27.93c0-15.424,12.505-27.93,27.93-27.93c15.424,0,27.93,12.507,27.93,27.93
	C218.73,345.29,206.225,357.794,190.799,357.794z"/>
<g>
</g>
<g>
</g>
<g>
</g>
<g>
</g>
<g>
</g>
<g>
</g>
<g>
</g>
<g>
</g>
<g>
</g>
<g>
</g>
<g>
</g>
<g>
</g>
<g>
</g>
<g>
</g>
<g>
</g>
</svg>
