<?xml version="1.0" encoding="iso-8859-1"?>
<!-- Generator: Adobe Illustrator 19.0.0, SVG Export Plug-In . SVG Version: 6.00 Build 0)  -->
<svg version="1.1" id="Layer_1" xmlns="http://www.w3.org/2000/svg" xmlns:xlink="http://www.w3.org/1999/xlink" x="0px" y="0px"
	 viewBox="0 0 503.467 503.467" style="enable-background:new 0 0 503.467 503.467;" xml:space="preserve">
<g transform="translate(1 1)">
	<path style="fill:#E4F2DE;" d="M327.533,173.933V498.2H3.267V37.4c0-18.773,15.36-34.133,34.133-34.133h256
		c18.773,0,34.133,15.36,34.133,34.133V173.933z"/>
	<path style="fill:#AAB1BA;" d="M165.4,173.933H54.467V165.4c0-61.44,49.493-110.933,110.933-110.933S276.333,103.96,276.333,165.4
		v8.533H165.4z"/>
	<g>
		<path style="fill:#80D6FA;" d="M498.2,54.467V88.6c0,28.16-23.04,51.2-51.2,51.2s-51.2-23.04-51.2-51.2V54.467h17.067h68.267
			H498.2z"/>
		<polygon style="fill:#80D6FA;" points="225.133,327.533 139.8,429.933 156.867,361.667 105.667,361.667 191,242.2 
			173.933,327.533 		"/>
	</g>
</g>
<path style="fill:#51565F;" d="M328.533,503.467H4.267C1.707,503.467,0,501.76,0,499.2V38.4C0,17.067,17.067,0,38.4,0h256
	c21.333,0,38.4,17.067,38.4,38.4v132.267h12.8c21.333,0,38.4,17.067,38.4,38.4v204.8c0,16.213,13.653,29.867,29.867,29.867
	c16.213,0,29.867-13.653,29.867-29.867v-268.8c-29.013-2.56-51.2-26.453-51.2-55.467V55.467c0-2.56,1.707-4.267,4.267-4.267h12.8
	V4.267c0-2.56,1.707-4.267,4.267-4.267s4.267,1.707,4.267,4.267V51.2h59.733V4.267c0-2.56,1.707-4.267,4.267-4.267
	s4.267,1.707,4.267,4.267V51.2h12.8c2.56,0,4.267,1.707,4.267,4.267V89.6c0,29.013-22.187,52.907-51.2,55.467v268.8
	c0,21.333-17.067,38.4-38.4,38.4c-21.333,0-38.4-17.067-38.4-38.4v-204.8c0-16.213-13.653-29.867-29.867-29.867h-17.067
	c-2.56,0-4.267-1.707-4.267-4.267V38.4c0-16.213-13.653-29.867-29.867-29.867h-256C22.187,8.533,8.533,22.187,8.533,38.4v456.533
	h315.733v-286.72c0-2.56,1.707-4.267,4.267-4.267s4.267,1.707,4.267,4.267V499.2C332.8,501.76,331.093,503.467,328.533,503.467z
	 M401.067,59.733V89.6c0,25.6,21.333,46.933,46.933,46.933S494.933,115.2,494.933,89.6V59.733H401.067z M140.8,435.2
	c-0.853,0-1.707,0-1.707-0.853c-1.707-0.853-2.56-2.56-2.56-5.12l15.36-63.147h-46.08c-1.707,0-3.413-0.853-3.413-2.56
	c-0.853-1.707-0.853-3.413,0-4.267l85.333-119.467c0.853-1.707,3.413-2.56,5.12-1.707c1.707,0.853,2.56,2.56,2.56,5.12
	L179.2,323.413h46.08c1.707,0,3.413,0.853,4.267,2.56c0.853,1.707,0.853,3.413-0.853,4.267l-85.333,102.4
	C143.36,434.347,141.653,435.2,140.8,435.2z M115.2,358.4h42.667c1.707,0,2.56,0.853,3.413,1.707
	c0.853,0.853,0.853,2.56,0.853,3.413l-12.8,50.347l67.413-81.067h-41.813c-0.853,0-2.56-0.853-3.413-1.707
	c-0.853-0.853-0.853-2.56-0.853-3.413l12.8-65.707L115.2,358.4z M166.4,179.2L166.4,179.2H55.467c-2.56,0-4.267-1.707-4.267-4.267
	V166.4c0-63.147,52.053-115.2,115.2-115.2s115.2,52.053,115.2,115.2v8.533c0,2.56-1.707,4.267-4.267,4.267h-76.8
	c-2.56,0-4.267-1.707-4.267-4.267c0-2.56,1.707-4.267,4.267-4.267h72.533V166.4c0-58.88-47.787-106.667-106.667-106.667
	S59.733,107.52,59.733,166.4v4.267h102.4V89.6c0-2.56,1.707-4.267,4.267-4.267s4.267,1.707,4.267,4.267v85.333
	c0,0.853-0.853,2.56-0.853,3.413C169.813,179.2,167.253,179.2,166.4,179.2z M232.96,140.8c-1.707,0-2.56-0.853-3.413-2.56
	c0-0.853-0.853-1.707-0.853-1.707c0-1.707,0.853-2.56,2.56-3.413l7.68-4.267c1.707-0.853,4.267-0.853,5.973,1.707
	c0,0.853,0.853,1.707,0.853,1.707c0,1.707-0.853,2.56-2.56,3.413l-7.68,4.267C234.667,140.8,233.813,140.8,232.96,140.8z
	 M99.84,140.8c-0.853,0-1.707,0-1.707-0.853l-7.68-4.267c-1.707-0.853-2.56-2.56-2.56-3.413c0-0.853,0-1.707,0.853-2.56
	C89.6,128,92.16,127.147,94.72,128l7.68,4.267c1.707,0.853,2.56,2.56,2.56,3.413c0,0.853,0,1.707-0.853,2.56
	C102.4,139.947,101.547,140.8,99.84,140.8z M204.8,112.64c-0.853,0-1.707,0-1.707-0.853c-1.707-0.853-2.56-2.56-2.56-3.413
	s0-1.707,0.853-2.56l4.267-7.68c0.853-1.707,3.413-2.56,5.973-1.707c1.707,0.853,2.56,2.56,2.56,3.413s0,1.707-0.853,2.56
	l-4.267,7.68C207.36,111.787,206.507,112.64,204.8,112.64z M128,112.64c-1.707,0-2.56-0.853-3.413-2.56l-4.267-7.68
	c0-0.853-0.853-1.707-0.853-1.707c0-1.707,0.853-2.56,2.56-3.413c1.707-0.853,4.267-0.853,5.973,1.707l4.267,7.68
	c0,0.853,0.853,1.707,0.853,1.707c0,1.707-0.853,2.56-2.56,3.413C129.707,112.64,128.853,112.64,128,112.64z"/>
<g>
</g>
<g>
</g>
<g>
</g>
<g>
</g>
<g>
</g>
<g>
</g>
<g>
</g>
<g>
</g>
<g>
</g>
<g>
</g>
<g>
</g>
<g>
</g>
<g>
</g>
<g>
</g>
<g>
</g>
</svg>
