<?xml version="1.0" encoding="iso-8859-1"?>
<!-- Generator: Adobe Illustrator 19.0.0, SVG Export Plug-In . SVG Version: 6.00 Build 0)  -->
<svg version="1.1" id="Layer_1" xmlns="http://www.w3.org/2000/svg" xmlns:xlink="http://www.w3.org/1999/xlink" x="0px" y="0px"
	 viewBox="0 0 512 512" style="enable-background:new 0 0 512 512;" xml:space="preserve">
<path style="fill:#FFBA7A;" d="M280.637,465.554h-49.273c-34.251,0-62.016-27.765-62.016-62.016v-40.484
	c0-15.959,12.937-28.895,28.895-28.895h115.515c15.959,0,28.895,12.937,28.895,28.895v40.484
	C342.653,437.788,314.887,465.554,280.637,465.554z"/>
<g>
	<path style="fill:#EAE8E8;" d="M314.335,277.521H197.665c-15.639,0-28.318,12.679-28.318,28.318l0,0
		c0,15.639,12.679,28.318,28.318,28.318h116.671c15.639,0,28.318-12.679,28.318-28.318l0,0
		C342.653,290.2,329.975,277.521,314.335,277.521z"/>
	<path style="fill:#EAE8E8;" d="M314.335,220.885H197.665c-15.639,0-28.318,12.679-28.318,28.318l0,0
		c0,15.639,12.679,28.318,28.318,28.318h116.671c15.639,0,28.318-12.679,28.318-28.318l0,0
		C342.653,233.564,329.975,220.885,314.335,220.885z"/>
	<path style="fill:#EAE8E8;" d="M314.335,164.249H197.665c-15.639,0-28.318,12.679-28.318,28.318l0,0
		c0,15.639,12.679,28.318,28.318,28.318h116.671c15.639,0,28.318-12.679,28.318-28.318l0,0
		C342.653,176.928,329.975,164.249,314.335,164.249z"/>
	<path style="fill:#EAE8E8;" d="M314.335,107.614H197.665c-15.639,0-28.318,12.679-28.318,28.318l0,0
		c0,15.639,12.679,28.318,28.318,28.318h116.671c15.639,0,28.318-12.679,28.318-28.318l0,0
		C342.653,120.291,329.975,107.614,314.335,107.614z"/>
	<path style="fill:#EAE8E8;" d="M314.335,50.978H197.665c-15.639,0-28.318,12.679-28.318,28.318l0,0
		c0,15.639,12.679,28.318,28.318,28.318h116.671c15.639,0,28.318-12.679,28.318-28.318l0,0
		C342.653,63.655,329.975,50.978,314.335,50.978z"/>
	<path style="fill:#EAE8E8;" d="M298.001,10.199h-84.003c-11.261,0-20.389,9.128-20.389,20.389l0,0
		c0,11.261,9.128,20.389,20.389,20.389h84.003c11.261,0,20.389-9.128,20.389-20.389l0,0
		C318.391,19.327,309.262,10.199,298.001,10.199z"/>
</g>
<path style="fill:#94D1EA;" d="M256,501.801L256,501.801c13.607,0,24.637-11.03,24.637-24.637v-11.611h-49.273v11.611
	C231.363,490.77,242.393,501.801,256,501.801z"/>
<g>
	<path style="fill:#5E282D;" d="M352.853,135.931c0-11.189-4.799-21.275-12.443-28.318c7.643-7.044,12.443-17.13,12.443-28.318
		c0-17.131-11.244-31.678-26.736-36.667c1.589-3.697,2.473-7.767,2.473-12.04C328.59,13.722,314.868,0,298.001,0h-84.003
		c-16.866,0-30.588,13.722-30.588,30.588c0,4.272,0.883,8.342,2.473,12.04c-15.493,4.989-26.736,19.538-26.736,36.667
		c0,11.189,4.799,21.275,12.443,28.318c-7.643,7.044-12.443,17.13-12.443,28.318s4.799,21.275,12.443,28.318
		c-7.643,7.044-12.443,17.13-12.443,28.318c0,11.189,4.799,21.275,12.443,28.318c-7.643,7.044-12.443,17.13-12.443,28.318
		s4.799,21.275,12.443,28.318c-7.643,7.044-12.443,17.13-12.443,28.318c0,11.275,4.87,21.434,12.616,28.483
		c-7.75,7.149-12.616,17.38-12.616,28.73v40.484c0,36.357,27.011,66.51,62.016,71.482v2.145C221.164,496.373,236.792,512,256,512
		s34.836-15.627,34.836-34.835v-2.145c35.006-4.972,62.016-35.125,62.016-71.482v-40.484c0-11.351-4.866-21.582-12.616-28.73
		c7.746-7.051,12.616-17.209,12.616-28.483c0-11.189-4.799-21.275-12.443-28.318c7.643-7.044,12.443-17.13,12.443-28.318
		s-4.799-21.275-12.443-28.318c7.643-7.044,12.443-17.13,12.443-28.318c0-11.189-4.799-21.275-12.443-28.318
		C348.053,157.206,352.853,147.12,352.853,135.931z M213.999,20.398h84.003c5.619,0,10.19,4.571,10.19,10.19
		s-4.571,10.19-10.19,10.19h-84.003c-5.619,0-10.19-4.571-10.19-10.19S208.38,20.398,213.999,20.398z M179.546,79.296
		c0-9.991,8.128-18.119,18.119-18.119h16.334h84.003h16.334c9.991,0,18.119,8.128,18.119,18.119s-8.128,18.119-18.119,18.119
		H197.665C187.673,97.415,179.546,89.286,179.546,79.296z M270.438,477.165c0,7.96-6.477,14.437-14.438,14.437
		c-7.961,0-14.438-6.477-14.438-14.437v-1.412h28.876V477.165z M332.454,403.538c0,28.572-23.245,51.817-51.817,51.817h-49.274
		c-28.572,0-51.817-23.245-51.817-51.817v-40.484c0-10.309,8.388-18.697,18.697-18.697h115.515c10.309,0,18.697,8.388,18.697,18.697
		v40.484H332.454z M332.454,305.839c0,9.991-8.128,18.119-18.119,18.119h-0.577H198.243h-0.577c-9.991,0-18.119-8.128-18.119-18.119
		c0-9.99,8.128-18.119,18.119-18.119h116.671C324.327,287.722,332.454,295.849,332.454,305.839z M332.454,249.203
		c0,9.991-8.128,18.119-18.119,18.119H197.665c-9.991,0-18.119-8.128-18.119-18.119s8.128-18.119,18.119-18.119h116.671
		C324.327,231.084,332.454,239.213,332.454,249.203z M332.454,192.568c0,9.99-8.128,18.119-18.119,18.119H197.665
		c-9.991,0-18.119-8.128-18.119-18.119c0-9.991,8.128-18.119,18.119-18.119h116.671
		C324.327,174.449,332.454,182.577,332.454,192.568z M197.665,154.051c-9.991,0-18.119-8.128-18.119-18.119
		c0-9.99,8.128-18.119,18.119-18.119h116.671c9.991,0,18.119,8.128,18.119,18.119c0,9.991-8.128,18.119-18.119,18.119H197.665z"/>
	<path style="fill:#5E282D;" d="M197.865,398.789c-5.633,0-10.199,4.566-10.199,10.199v2.04c0,5.633,4.566,10.199,10.199,10.199
		s10.199-4.566,10.199-10.199v-2.04C208.064,403.355,203.498,398.789,197.865,398.789z"/>
	<path style="fill:#5E282D;" d="M197.865,352.892c-5.633,0-10.199,4.566-10.199,10.199v17.339c0,5.633,4.566,10.199,10.199,10.199
		s10.199-4.566,10.199-10.199v-17.339C208.064,357.459,203.498,352.892,197.865,352.892z"/>
</g>
<g>
</g>
<g>
</g>
<g>
</g>
<g>
</g>
<g>
</g>
<g>
</g>
<g>
</g>
<g>
</g>
<g>
</g>
<g>
</g>
<g>
</g>
<g>
</g>
<g>
</g>
<g>
</g>
<g>
</g>
</svg>
