<?xml version="1.0" encoding="iso-8859-1"?>
<!-- Generator: Adobe Illustrator 19.0.0, SVG Export Plug-In . SVG Version: 6.00 Build 0)  -->
<svg version="1.1" id="Capa_1" xmlns="http://www.w3.org/2000/svg" xmlns:xlink="http://www.w3.org/1999/xlink" x="0px" y="0px"
	 viewBox="0 0 463.001 463.001" style="enable-background:new 0 0 463.001 463.001;" xml:space="preserve">
<path d="M400.115,199.35c-0.941-0.995-1.968-1.893-3.058-2.701c2.466-58.807,2.677-103.203,2.578-124.627
	c-0.058-12.6-4.999-24.449-13.913-33.364l-3.179-3.178V23.5c0-12.958-10.542-23.5-23.5-23.5h-256c-12.958,0-23.5,10.542-23.5,23.5
	v12.894l-2.265,2.265c-8.914,8.914-13.854,20.762-13.913,33.363c-0.099,21.42,0.112,65.812,2.578,124.627
	c-1.09,0.808-2.117,1.707-3.058,2.702c-4.419,4.671-6.749,11.033-6.392,17.453l6.222,112c0.488,8.79,5.775,16.23,13.228,19.846
	c2.845,31.632,6.169,63.125,9.899,93.676C87.282,454.111,97.322,463,109.196,463h17.817c0.007,0,0.014,0.001,0.021,0.001
	c0.005,0,0.01-0.001,0.015-0.001h57.806c11.879,0,21.91-8.895,23.332-20.689L231.5,248.781l23.313,193.529
	C256.235,454.105,266.265,463,278.145,463h57.806c0.005,0,0.01,0.001,0.015,0.001c0.007,0,0.014-0.001,0.021-0.001h17.817
	c11.875,0,21.914-8.889,23.354-20.675c3.729-30.542,7.053-62.034,9.898-93.676c7.453-3.616,12.741-11.056,13.229-19.846l6.222-112
	C406.864,210.383,404.534,204.021,400.115,199.35z M382.236,192h-17.013c2.309-56.578,2.508-99.267,2.412-120.114
	c-0.041-8.939-2.569-17.492-7.231-24.886h12.446l2.265,2.265c6.1,6.1,9.48,14.206,9.52,22.826
	C384.731,92.893,384.533,135.496,382.236,192z M367.544,23.5V32h-23.6c-0.002,0-0.003,0-0.005,0h-9.395V15h24.5
	C363.731,15,367.544,18.813,367.544,23.5z M270.544,32V15h49v17H270.544z M206.544,32V15h49v17H206.544z M142.544,32V15h49v17
	H142.544z M94.544,23.5c0-4.687,3.813-8.5,8.5-8.5h24.5v17h-8.482c-0.002,0-0.003,0-0.005,0H94.544V23.5z M78.365,72.091
	c0.04-8.62,3.42-16.727,9.52-22.826L90.15,47h12.447c-4.662,7.394-7.19,15.947-7.231,24.886
	C95.269,92.729,95.468,135.413,97.777,192H80.765C78.468,135.487,78.269,92.89,78.365,72.091z M73.782,209.659
	c1.622-1.714,3.815-2.659,6.175-2.659h39.086c4.687,0,8.5,3.813,8.5,8.5v112c0,4.687-3.813,8.5-8.5,8.5H86.179
	c-4.509,0-8.236-3.527-8.487-8.029l-6.222-112C71.34,213.615,72.161,211.373,73.782,209.659z M100.733,440.506
	c-3.566-29.204-6.758-59.276-9.514-89.506h16.855c2.991,32.795,6.504,65.35,10.468,97h-9.345
	C104.893,448,101.254,444.778,100.733,440.506z M269.706,440.517l-29.138-241.879c12.524-0.945,24.41-3.749,34.809-8.256
	c3.8-1.648,5.545-6.064,3.898-9.865c-1.647-3.8-6.063-5.543-9.865-3.898c-11.138,4.829-24.405,7.381-38.367,7.381
	s-27.229-2.552-38.367-7.381c-3.803-1.649-8.217,0.098-9.865,3.898c-1.647,3.8,0.098,8.217,3.898,9.865
	c10.649,4.617,22.858,7.448,35.714,8.324l-29.129,241.811c-0.514,4.267-4.142,7.484-8.439,7.484h-51.197
	c-3.998-31.746-7.541-64.426-10.556-97.358c11.029-1.929,19.441-11.569,19.441-23.142v-112c0-12.958-10.542-23.5-23.5-23.5h-6.254
	c-2.321-56.596-2.521-99.255-2.424-120.044c0.04-8.57,3.417-16.631,9.508-22.698L122.141,47h101.402v112.5
	c0,4.142,3.358,7.5,7.5,7.5s7.5-3.358,7.5-7.5V47h102.316l2.267,2.258c6.092,6.067,9.469,14.127,9.508,22.698
	c0.096,20.794-0.103,63.458-2.424,120.044h-6.254c-12.958,0-23.5,10.542-23.5,23.5v112c0,11.573,8.412,21.212,19.441,23.142
	c-3.015,32.933-6.558,65.613-10.556,97.358h-51.196C273.848,448,270.22,444.783,269.706,440.517z M362.268,440.506
	c-0.521,4.272-4.16,7.494-8.464,7.494h-9.345c3.963-31.65,7.476-64.205,10.468-97h16.855
	C369.025,381.239,365.833,411.311,362.268,440.506z M391.531,215.971l-6.222,112c-0.25,4.502-3.979,8.029-8.487,8.029h-32.864
	c-4.687,0-8.5-3.813-8.5-8.5v-112c0-4.687,3.813-8.5,8.5-8.5h39.086c2.36,0,4.553,0.944,6.175,2.659
	C390.84,211.373,391.661,213.615,391.531,215.971z"/>
<g>
</g>
<g>
</g>
<g>
</g>
<g>
</g>
<g>
</g>
<g>
</g>
<g>
</g>
<g>
</g>
<g>
</g>
<g>
</g>
<g>
</g>
<g>
</g>
<g>
</g>
<g>
</g>
<g>
</g>
</svg>
