<?xml version="1.0" encoding="iso-8859-1"?>
<!-- Generator: Adobe Illustrator 19.0.0, SVG Export Plug-In . SVG Version: 6.00 Build 0)  -->
<svg version="1.1" id="Layer_1" xmlns="http://www.w3.org/2000/svg" xmlns:xlink="http://www.w3.org/1999/xlink" x="0px" y="0px"
	 viewBox="0 0 511.998 511.998" style="enable-background:new 0 0 511.998 511.998;" xml:space="preserve">
<path style="fill:#D8D7D9;" d="M282.139,254.207c0,0-12.94,82.551,4.016,213.292h-58.111
	c-16.956-130.742-4.016-213.292-4.016-213.292v-34.221h58.799L282.139,254.207z"/>
<g style="opacity:0.22;">
	<path style="fill:#59575C;" d="M282.592,248.641l0.688-34.221h-58.799v34.221c0,0-2.648,16.894-3.978,47.497h58.111
		C279.945,265.534,282.592,248.641,282.592,248.641z"/>
</g>
<path style="fill:#7A797E;" d="M373.181,254.207c0,0,12.94,82.551-4.016,213.292h-58.111
	c16.956-130.742,4.016-213.292,4.016-213.292v-29.389h60.138L373.181,254.207z"/>
<path style="fill:#59575C;" d="M373.179,254.027l2.025-29.389h-60.138v29.389c0,0,2.88,18.384,4.142,51.529h58.111
	C376.059,272.411,373.179,254.027,373.179,254.027z"/>
<path style="fill:#FF3069;" d="M487.145,248.804V127.292c0,0-82.164-170.405-314.304-104.542
	C26.89,64.16,24.854,231.155,24.854,231.155h59.142c16.849,0,33.64,1.863,50.102,5.456c28.561,6.236,84.679,15.588,164.33,15.588
	C417.903,252.199,423.802,308.32,487.145,248.804L487.145,248.804z"/>
<g>
	<path style="opacity:0.2;fill:#A5173F;enable-background:new    ;" d="M426.634,57.342
		c-12.338,39.084-37.316,78.967-85.489,107.288c-152.548,89.685-259.1,36.067-305.081,1.096
		c-10.859,36.637-11.211,65.429-11.211,65.429h59.142c16.849,0,33.64,1.863,50.102,5.456c28.561,6.236,84.679,15.588,164.33,15.588
		c119.477,0,125.376,56.121,188.718-3.394V127.292C487.145,127.292,469.265,90.22,426.634,57.342z"/>
	<circle style="fill:#A5173F;" cx="130.325" cy="175.642" r="14.725"/>
</g>
<g>
	<rect x="227.682" y="464.663" style="fill:#7A797E;" width="58.469" height="39.712"/>
	<rect x="311.053" y="464.663" style="fill:#7A797E;" width="58.469" height="39.712"/>
</g>
<path d="M494.017,123.978c-0.874-1.813-21.996-44.815-72.625-79.924C391.685,23.451,357.955,9.9,321.137,3.773
	C275.397-3.838,224.8,0.078,170.758,15.41C108.721,33.012,62.48,75.973,37.031,139.649c-19.061,47.695-19.785,89.649-19.806,91.411
	c-0.024,2.04,0.768,4.005,2.201,5.454c1.433,1.452,3.388,2.267,5.427,2.267h59.142c16.115,0,32.424,1.777,48.474,5.28
	c16.686,3.644,45.044,8.811,83.557,12.224c-2.203,16.547-10.621,93.209,4.026,208.847v39.236c0,4.214,3.416,7.629,7.629,7.629
	h58.473c4.214,0,7.629-3.415,7.629-7.629v-39.71c0-1.138-0.256-2.216-0.703-3.186c-13.568-108.583-6.24-183.342-3.99-201.696
	c3.08,0.028,6.184,0.049,9.336,0.049c3.333,0,6.562,0.048,9.711,0.131c2.277,18.661,9.512,93.285-4.011,201.516
	c-0.448,0.97-0.703,2.047-0.703,3.186v39.71c0,4.214,3.415,7.629,7.629,7.629h58.472c4.214,0,7.629-3.415,7.629-7.629V465.13
	c11.943-94.287,8.553-162.665,5.697-193.669c5.016,1.45,9.72,2.912,14.204,4.308c14.189,4.417,26.027,8.102,37.981,8.102
	c16.666,0,33.553-7.167,57.331-29.508c1.535-1.442,2.405-3.454,2.405-5.56v-121.51C494.775,126.145,494.516,125.013,494.017,123.978
	z M235.311,496.742v-21.614h43.215v21.614H235.311z M277.168,457.032h-42.743c-13.451-111.408-4.909-186.271-3.154-199.532
	c13.147,0.932,27.316,1.639,42.458,2.016C271.154,280.743,264.649,352.107,277.168,457.032z M318.683,496.742v-21.614h43.214v21.614
	H318.683z M362.784,457.032h-42.742c12.291-103.016,6.245-173.68,3.583-196.307c17.048,1.256,31.198,3.712,43.448,6.586
	C369.749,293.615,374.271,361.929,362.784,457.032z M400.911,260.326c0.06,0.02,0.174,0.057,0.338,0.121
	C401.138,260.405,401.025,260.364,400.911,260.326z M479.517,245.476c-31.936,29.241-45.632,25.762-76.047,16.31
	c-0.636-0.547-1.366-1.003-2.186-1.323c-4.133-1.757-12.999-6.149-23.557-12.376c-0.426-0.316-0.884-0.588-1.368-0.811
	c-26.337-15.714-62.152-42.355-62.152-68.062c0-6.68,2.293-11.681,7.215-15.736c19.966-16.454,74.628-10.257,94.004-6.482
	c4.133,0.817,8.142-1.89,8.95-6.024c0.809-4.135-1.888-8.143-6.024-8.95c-3.13-0.614-77.019-14.707-106.624,9.673
	c-8.479,6.982-12.779,16.242-12.779,27.52c0,21.761,16.371,44.472,48.657,67.499c0.828,0.591,1.656,1.172,2.483,1.748
	c-14.615-2.326-31.604-3.891-51.662-3.891c-80.14,0-136.337-9.656-162.703-15.412c-17.117-3.737-34.521-5.632-51.728-5.632H32.919
	c1.11-13.985,4.993-45.158,18.464-78.67C75.382,85.152,116.947,46.54,174.924,30.089c57.93-16.435,110.549-19.33,157.347-8.778
	c-26.913-2.937-53.076-1.456-78.324,4.477c-42.104,9.895-72.03,29.559-93.397,45.584c-29.397,22.047-45.88,17.235-46.043,17.185
	l0.181,0.064l-5.32,14.301c0.855,0.318,4.255,1.429,9.963,1.429c10.057,0,27.281-3.451,50.374-20.771
	c27.89-20.919,112.661-84.486,251.161-21.036c36.63,27.927,54.856,59.52,58.651,66.604L479.517,245.476L479.517,245.476z"/>
<path d="M130.321,153.29c-12.326,0-22.354,10.028-22.354,22.354S117.994,198,130.321,198s22.354-10.028,22.354-22.355
	C152.675,163.318,142.647,153.29,130.321,153.29z M130.321,182.741c-3.912,0-7.096-3.184-7.096-7.097s3.183-7.096,7.096-7.096
	c3.913,0,7.096,3.183,7.096,7.096S134.234,182.741,130.321,182.741z"/>
<g>
</g>
<g>
</g>
<g>
</g>
<g>
</g>
<g>
</g>
<g>
</g>
<g>
</g>
<g>
</g>
<g>
</g>
<g>
</g>
<g>
</g>
<g>
</g>
<g>
</g>
<g>
</g>
<g>
</g>
</svg>
