<?xml version="1.0" standalone="no"?>
<!DOCTYPE svg PUBLIC "-//W3C//DTD SVG 20010904//EN"
 "http://www.w3.org/TR/2001/REC-SVG-20010904/DTD/svg10.dtd">
<svg version="1.0" xmlns="http://www.w3.org/2000/svg"
 width="3420.000000pt" height="2280.000000pt" viewBox="0 0 3420.000000 2280.000000"
 preserveAspectRatio="xMidYMid meet">
<metadata>
Created by potrace 1.15, written by Peter Selinger 2001-2017
</metadata>
<g transform="translate(0.000000,2280.000000) scale(0.100000,-0.100000)"
fill="#000000" stroke="none">
<path d="M19510 21100 c-79 -28 -147 -46 -218 -54 -78 -10 -111 -19 -134 -36
-31 -23 -34 -23 -222 -17 -123 4 -209 11 -241 21 -27 8 -70 17 -95 21 -24 4
-56 16 -70 27 -25 18 -50 19 -745 16 -639 -3 -724 -5 -756 -19 -95 -44 -159
-145 -166 -264 -3 -40 -18 -111 -36 -165 -30 -93 -31 -100 -32 -295 -1 -227 3
-213 -103 -375 -80 -120 -96 -202 -55 -283 13 -26 6 -41 -178 -410 -105 -210
-240 -476 -299 -592 -59 -115 -176 -345 -260 -510 -84 -165 -169 -331 -190
-370 -21 -38 -102 -196 -180 -350 -257 -504 -433 -846 -488 -944 l-35 -64 -23
45 c-13 25 -47 67 -76 93 -132 119 -324 170 -803 215 -396 36 -500 40 -1376
50 -476 5 -877 11 -890 14 -13 3 -202 10 -419 17 -435 12 -454 11 -515 -42
-40 -36 -53 -85 -35 -129 26 -63 189 -178 395 -280 179 -89 218 -100 348 -100
l110 0 83 -80 c98 -94 159 -135 231 -156 40 -12 52 -20 57 -40 4 -13 18 -30
31 -36 14 -6 25 -14 25 -17 0 -3 -12 -42 -26 -86 -14 -44 -27 -102 -27 -130
l-2 -50 141 -140 c77 -77 170 -180 206 -228 135 -183 288 -551 334 -807 10
-56 18 -198 24 -420 8 -282 12 -347 29 -410 26 -100 86 -226 116 -246 14 -9
42 -39 62 -68 21 -28 60 -76 88 -106 31 -33 56 -71 63 -97 10 -32 26 -52 72
-90 33 -26 60 -53 60 -59 0 -18 -534 -1076 -603 -1193 -140 -241 -418 -641
-563 -811 -185 -217 -507 -499 -835 -732 -128 -91 -189 -146 -189 -170 0 -6
36 -47 79 -92 102 -104 115 -138 90 -228 -10 -38 -10 -38 -63 -38 -134 0 -400
-49 -579 -107 -99 -31 -332 -141 -402 -190 -17 -11 -64 -41 -105 -68 -531
-341 -967 -898 -1179 -1505 -220 -633 -292 -1143 -246 -1755 33 -436 93 -727
232 -1120 142 -399 373 -793 661 -1126 122 -142 395 -406 523 -505 405 -317
859 -481 1379 -501 498 -19 958 121 1403 427 156 107 349 273 452 389 243 273
483 639 606 921 53 123 170 477 200 603 22 95 24 97 52 97 28 0 318 -22 1347
-100 283 -21 704 -53 935 -71 333 -25 424 -34 438 -47 14 -12 56 -16 245 -19
l227 -3 71 -188 c62 -161 70 -188 55 -193 -14 -6 -44 -17 -153 -62 -23 -10
-37 -7 -95 20 -37 18 -80 34 -95 38 -16 3 -28 10 -28 15 0 6 -25 10 -55 10
-41 0 -55 -4 -55 -14 0 -21 -14 -27 -94 -41 -60 -11 -73 -10 -88 2 -26 23 -71
13 -78 -17 -5 -23 -11 -25 -74 -28 -60 -3 -70 0 -83 18 -19 27 -29 26 -66 -14
-28 -29 -41 -35 -94 -41 -66 -7 -77 -17 -42 -35 19 -11 19 -13 5 -29 -23 -26
-20 -46 12 -60 l27 -13 -34 -17 c-27 -15 -30 -19 -16 -24 9 -4 39 -7 67 -7
l51 0 -7 -54 c-4 -34 -2 -57 4 -61 6 -4 31 12 56 35 43 39 48 41 87 35 27 -5
56 -20 79 -41 21 -18 49 -36 63 -40 43 -11 120 1 151 23 23 17 39 20 82 16 46
-5 57 -10 79 -39 27 -37 66 -45 80 -19 6 10 41 20 98 30 88 14 90 14 113 -8
34 -32 89 -18 75 19 -6 15 49 33 127 41 l55 5 48 -69 c61 -91 97 -108 222
-108 79 0 97 4 150 29 73 36 187 146 215 208 13 28 20 65 20 106 0 56 -9 85
-69 235 -38 95 -86 210 -106 257 -54 124 -105 251 -105 261 0 4 21 22 48 40
68 46 356 338 441 449 69 89 219 308 268 392 20 34 25 37 47 28 14 -5 28 -6
30 -1 3 4 22 55 42 111 l37 104 -22 17 c-17 14 -20 22 -13 36 22 40 63 184 86
298 38 185 47 299 45 564 l-2 244 26 14 c25 12 26 17 20 61 -3 26 -11 72 -17
102 -10 49 -14 55 -40 60 -28 5 -30 9 -61 135 -34 133 -80 269 -132 385 -50
114 -165 320 -220 397 -13 17 -23 34 -23 38 0 4 -9 18 -20 32 -15 20 -17 28
-7 43 9 15 8 27 -2 55 -7 20 -11 38 -9 39 1 1 197 83 433 181 237 98 592 245
790 328 996 413 1048 434 1183 466 156 37 170 37 225 10 82 -41 151 -105 254
-234 116 -146 176 -255 193 -355 7 -36 13 -190 15 -344 3 -237 5 -281 19 -294
20 -20 135 -19 325 4 180 22 241 20 341 -12 59 -18 94 -36 122 -62 l39 -37
-78 -60 c-227 -174 -568 -493 -683 -640 -203 -258 -404 -637 -601 -1131 -193
-485 -250 -1245 -145 -1929 62 -399 121 -613 282 -1025 160 -407 377 -761 713
-1164 317 -380 720 -691 1196 -923 548 -267 1236 -377 1765 -283 423 76 886
277 1250 543 177 130 448 425 657 717 110 153 151 224 254 432 214 438 326
821 385 1323 14 113 18 223 18 445 -1 425 -31 685 -121 1045 -117 469 -303
924 -533 1305 -240 397 -476 668 -835 961 -389 317 -723 506 -1140 645 -223
74 -305 96 -457 123 -290 51 -498 52 -823 5 -99 -14 -198 -28 -220 -31 l-41
-5 -104 138 c-170 226 -257 331 -359 438 -111 116 -139 150 -314 370 -123 155
-132 170 -252 411 -157 316 -354 735 -457 976 l-81 187 -86 11 c-48 6 -150 11
-228 11 l-140 0 -28 68 c-15 37 -46 109 -67 161 -22 51 -37 100 -34 107 5 12
30 14 153 8 82 -3 175 -10 208 -15 33 -5 63 -5 66 -1 8 7 -75 219 -92 236 -5
6 -107 12 -226 15 l-218 6 -67 150 c-37 83 -67 159 -67 169 -1 18 7 19 187 13
103 -4 199 -10 215 -13 38 -9 36 11 -17 131 -53 120 -33 112 -302 121 l-190 7
-67 151 c-37 83 -67 156 -67 162 0 6 12 14 28 17 35 6 352 -8 373 -17 10 -4
20 -3 23 2 3 5 -66 175 -153 378 -878 2044 -1469 3448 -1585 3769 -88 242
-591 1537 -754 1940 -62 154 -90 285 -94 445 l-3 135 254 127 c139 70 272 139
294 154 40 26 40 27 18 36 -15 5 -21 13 -17 23 3 8 4 15 2 15 -2 0 -48 -30
-103 -66 -111 -74 -221 -136 -335 -188 l-78 -35 0 35 0 35 275 135 c152 74
280 134 286 134 5 0 45 18 89 40 44 22 92 40 106 40 15 0 76 -22 135 -50 59
-27 119 -50 132 -50 24 0 42 22 38 46 -2 15 75 84 94 84 9 0 25 16 36 35 23
38 36 44 45 20 13 -34 57 -3 70 48 7 32 30 45 47 28 18 -18 52 -13 75 12 29
31 46 77 32 91 -16 16 -12 66 5 66 8 0 15 7 15 15 0 8 1 15 3 15 1 0 49 9 107
20 58 11 130 20 160 20 30 0 71 5 90 10 40 12 215 43 340 60 l85 12 130 -81
c72 -44 137 -85 145 -90 12 -7 10 -11 -12 -20 -30 -11 -38 -31 -13 -31 18 0
18 -8 0 -40 -8 -14 -14 -28 -15 -32 0 -4 27 -22 59 -40 40 -22 64 -43 73 -63
12 -28 16 -30 73 -31 46 -1 100 -15 233 -62 95 -34 179 -59 186 -56 8 3 12 13
9 23 -4 16 5 19 64 24 40 4 78 14 93 24 14 10 52 27 85 37 33 10 80 25 104 32
62 19 73 18 69 -8 -3 -23 7 -26 263 -83 l77 -16 6 -127 c11 -207 36 -316 83
-373 50 -59 124 -77 159 -38 15 17 19 36 19 98 -1 64 -6 87 -32 143 -17 37
-45 87 -62 111 -30 44 -76 147 -65 147 3 0 27 -10 54 -21 27 -12 57 -19 65
-15 23 8 45 68 45 120 0 44 -1 46 -52 76 -29 16 -76 37 -104 47 l-52 16 -7 89
c-5 72 -3 97 11 134 15 40 16 53 5 98 -7 28 -15 93 -17 145 -3 81 -8 101 -32
145 -16 28 -45 63 -63 78 -32 26 -45 29 -159 37 -263 21 -667 35 -975 36
l-320 0 -62 -27 c-61 -27 -67 -28 -248 -28 -180 0 -187 1 -237 26 -29 15 -87
32 -130 40 -43 8 -88 18 -98 24 -11 6 -73 24 -138 41 -99 25 -143 31 -282 35
l-165 5 -115 -41z m-2613 -434 c-3 -8 -11 -59 -17 -114 -9 -77 -9 -120 0 -188
7 -49 14 -120 17 -159 l4 -70 -111 -217 c-61 -120 -115 -220 -120 -223 -18
-11 -32 37 -26 88 8 58 22 89 81 172 81 117 88 143 95 385 6 220 12 250 56
318 16 25 29 30 21 8z m108 -89 c33 -14 102 -31 153 -38 l93 -12 -63 -35 c-82
-46 -165 -131 -207 -210 -21 -40 -37 -60 -43 -54 -29 29 -47 221 -32 336 8 53
2 53 99 13z m5448 -164 c2 -65 3 -120 1 -122 -2 -2 -59 13 -128 33 -179 54
-183 54 -311 9 -89 -31 -118 -37 -154 -32 -25 3 -47 11 -49 17 -2 6 -14 26
-27 44 -34 46 -85 131 -85 142 0 4 143 5 318 1 265 -5 324 -4 362 8 25 8 50
15 56 16 7 1 13 -39 17 -116z m-2583 86 c19 -12 41 -30 48 -40 7 -11 24 -19
36 -19 16 0 26 -7 29 -22 16 -59 -54 -51 -111 13 l-27 30 -58 -16 c-70 -18
-67 -18 -67 -2 0 7 14 24 30 39 51 44 70 47 120 17z m-890 -323 c0 -27 28 -36
114 -36 89 0 86 -13 -16 -67 -107 -58 -415 -213 -423 -213 -10 0 -5 21 15 63
17 36 27 45 58 53 32 8 42 18 69 69 18 33 32 69 30 79 -1 15 13 25 63 47 80
35 90 35 90 5z m3654 -291 c71 -140 87 -181 92 -232 9 -80 -9 -113 -61 -113
-62 0 -114 96 -144 264 -12 67 -15 259 -4 270 12 12 30 -17 117 -189z m-5074
-382 c40 -85 40 -87 21 -107 -13 -15 -16 -27 -11 -41 5 -11 9 -37 9 -57 1 -35
3 -38 31 -38 24 0 34 -8 56 -46 15 -25 37 -50 50 -54 16 -7 25 -20 30 -47 5
-28 20 -50 55 -83 46 -43 58 -69 289 -600 250 -573 333 -766 610 -1415 208
-488 331 -782 385 -920 37 -95 125 -308 287 -695 22 -52 50 -120 63 -150 28
-68 370 -873 420 -990 32 -73 251 -603 350 -845 18 -44 87 -213 153 -375 66
-162 153 -385 192 -495 340 -947 472 -1331 489 -1418 19 -105 21 -117 10 -117
-6 0 -43 16 -82 35 -48 23 -80 33 -94 29 -26 -7 -25 -6 -17 -28 5 -13 9 -13
23 6 l17 21 32 -34 c22 -22 32 -42 30 -58 -3 -27 -13 -33 -77 -52 -24 -7 -50
-19 -58 -27 -7 -8 -35 -20 -61 -27 -26 -7 -94 -33 -152 -58 -173 -73 -1470
-623 -1535 -650 -197 -82 -413 -180 -446 -202 -21 -14 -46 -25 -54 -25 -9 0
-31 -16 -51 -35 -21 -22 -44 -35 -60 -35 -14 0 -22 4 -19 10 10 16 -8 11 -35
-10 -14 -11 -35 -20 -48 -20 -33 0 -122 -48 -122 -65 0 -8 -9 -19 -20 -25 -16
-9 -20 -8 -20 5 0 8 -4 15 -8 15 -7 0 -304 -127 -477 -204 -32 -15 -65 -25
-72 -24 -11 2 -158 316 -178 378 -5 17 23 31 110 56 67 19 98 18 126 -4 13
-11 41 -22 62 -25 20 -3 44 -13 53 -21 9 -9 32 -16 54 -16 30 0 40 5 45 20 3
11 14 20 23 21 9 0 48 3 86 8 62 7 69 5 74 -11 7 -26 62 -25 69 2 5 17 14 20
66 20 45 0 63 -4 72 -17 12 -16 14 -16 39 0 14 10 26 22 26 27 0 6 27 10 60
10 55 0 75 10 50 25 -16 10 -12 22 10 28 24 6 27 42 4 51 -10 4 -14 14 -11 26
4 16 -2 20 -42 25 -25 4 -50 8 -55 9 -15 3 -14 60 1 71 17 13 7 45 -13 45 -18
0 -54 -36 -54 -54 0 -17 -62 -26 -87 -12 -10 5 -35 24 -55 42 -58 51 -156 58
-204 13 -18 -17 -27 -18 -70 -10 -51 10 -86 5 -163 -22 -25 -9 -49 -13 -54
-10 -5 3 -20 0 -33 -8 -25 -13 -41 -8 -29 10 3 6 22 11 41 11 19 0 34 4 34 9
0 5 8 7 19 4 10 -3 32 2 48 11 17 8 40 12 51 9 23 -6 28 9 16 41 -9 25 -57 19
-84 -9 -21 -22 -31 -25 -100 -25 -64 0 -80 3 -95 20 -19 21 -63 18 -78 -6 -4
-7 -23 -18 -42 -24 -25 -8 -32 -15 -28 -28 4 -9 -17 4 -46 28 -36 31 -61 63
-80 106 -46 100 -113 135 -225 115 -72 -13 -185 -66 -242 -114 -56 -49 -124
-153 -124 -191 0 -60 89 -305 169 -464 62 -124 63 -118 -16 -127 -151 -15
-385 -71 -490 -116 -35 -15 -43 -23 -43 -44 0 -31 28 -17 -545 -272 -203 -91
-433 -194 -510 -228 -77 -35 -266 -119 -420 -188 -154 -69 -457 -204 -674
-301 -216 -97 -398 -176 -405 -176 -7 0 -32 30 -56 67 -62 95 -306 418 -398
527 -227 271 -516 500 -842 670 -115 59 -170 81 -393 161 -43 15 -87 35 -99
44 -20 17 -19 18 78 81 155 101 213 127 290 135 38 4 93 13 121 21 65 18 48
-12 243 443 141 330 183 420 420 906 56 116 149 307 207 425 152 314 535 1040
549 1040 22 0 66 63 106 149 23 51 58 105 89 139 38 41 74 103 135 225 47 95
84 182 84 198 0 33 352 745 490 989 48 85 131 238 184 339 53 101 114 203 134
227 20 23 89 145 153 270 93 182 119 243 129 299 9 53 31 105 87 212 l74 143
-17 29 -17 29 128 243 c367 698 556 1062 637 1224 50 99 154 304 233 455 78
151 186 361 240 465 54 105 171 331 261 503 90 172 164 314 164 317 0 3 -8 5
-18 5 -25 0 -30 6 -25 34 6 31 41 46 111 46 37 0 52 3 43 9 -15 9 18 57 104
152 36 40 112 99 127 99 4 0 26 -39 48 -87z m-6395 -2676 c36 -13 60 -28 60
-37 0 -8 12 -21 28 -28 33 -16 34 -23 5 -49 -35 -30 -46 -35 -65 -24 -52 28
-158 71 -188 77 -38 7 -46 21 -17 30 28 9 35 13 67 33 38 24 38 24 110 -2z
m2553 -276 c11 -7 -137 -80 -430 -212 -36 -16 -84 3 -104 43 -8 16 -26 33 -39
38 -38 15 -31 38 17 50 257 70 515 107 556 81z m404 -78 l28 -27 228 -7 c201
-7 591 -35 600 -44 11 -10 -13 -68 -33 -81 -55 -36 -415 -117 -810 -184 -403
-67 -935 -134 -935 -118 0 5 8 21 18 36 10 15 23 36 28 47 10 18 26 21 145 27
236 13 284 33 378 157 87 114 148 165 234 194 91 32 86 32 119 0z m-1987 -119
c69 -29 86 -32 114 -24 19 5 37 7 41 5 7 -4 30 -83 30 -103 0 -12 -79 -22
-175 -24 -53 -1 -80 4 -110 19 -51 26 -165 110 -165 121 0 13 141 51 165 45
11 -3 56 -20 100 -39z m2155 -320 c147 -26 231 -79 215 -136 -4 -13 -45 -100
-92 -194 l-85 -171 36 -123 c20 -68 36 -133 36 -145 0 -31 -242 -513 -528
-1053 l-97 -184 -73 -49 c-40 -26 -92 -53 -115 -59 -75 -19 -80 -24 -155 -164
-41 -75 -77 -138 -81 -141 -17 -10 -48 27 -84 98 -34 68 -39 89 -53 217 -27
263 -89 568 -151 750 -37 110 -100 243 -201 424 -67 119 -78 162 -69 263 12
120 57 185 236 334 75 63 97 77 108 67 17 -14 81 -12 99 3 8 6 14 28 14 48 0
37 1 38 83 78 45 23 123 53 172 68 50 15 110 33 135 40 164 50 457 62 650 29z
m2900 -5816 c54 -113 227 -521 245 -577 5 -16 3 -22 -5 -19 -13 4 -59 104
-125 273 -24 61 -71 171 -105 245 -91 198 -92 200 -79 200 6 0 37 -55 69 -122z
m1712 -327 c-24 -5 -33 -22 -27 -50 8 -33 -14 -138 -26 -120 -7 11 -9 11 -9
-3 0 -10 5 -18 10 -18 20 0 10 -38 -14 -54 -20 -13 -24 -23 -22 -53 1 -26 7
-38 16 -38 11 0 17 -15 20 -50 l5 -50 45 1 c55 0 140 41 157 75 7 13 15 41 18
62 7 47 45 68 58 34 10 -28 -2 -85 -14 -66 -6 9 -9 10 -9 2 0 -6 4 -14 9 -17
12 -8 -12 -57 -38 -80 -11 -10 -25 -15 -32 -10 -8 4 -10 3 -5 -4 9 -14 -48
-44 -77 -40 -14 2 -21 -2 -19 -11 2 -8 -3 -11 -12 -8 -10 4 -13 1 -9 -9 6 -16
-22 -20 -32 -4 -8 14 -35 13 -35 -1 0 -6 7 -9 15 -5 8 3 15 1 15 -4 0 -6 -9
-10 -19 -10 -11 0 -23 -4 -26 -10 -3 -5 -15 -10 -25 -10 -10 0 -20 -4 -22 -9
-1 -4 -14 -11 -28 -15 -14 -3 -20 -3 -13 0 7 3 10 11 7 19 -3 7 0 30 6 52 6
21 15 88 20 148 20 244 33 294 89 358 18 20 27 24 33 15 5 -8 1 -14 -10 -17z
m411 -181 c3 -11 0 -20 -6 -20 -6 0 -7 -3 -3 -7 4 -5 14 0 21 10 12 16 13 10
14 -48 0 -46 -3 -64 -11 -59 -8 5 -9 1 -5 -10 9 -22 -21 -56 -32 -37 -4 6 -14
9 -22 6 -10 -4 -20 3 -28 18 -15 29 -11 83 7 80 6 -2 12 2 12 7 0 6 -4 10 -10
10 -5 0 -10 9 -10 19 0 13 9 21 30 26 28 6 43 25 20 25 -5 0 -10 5 -10 11 0
18 27 -8 33 -31z m-8243 -162 c0 -17 -84 -122 -88 -109 -5 14 -61 13 -137 -2
-53 -11 -60 -16 -63 -39 -3 -21 -10 -27 -35 -31 -18 -2 -35 -3 -39 0 -5 2 -8
30 -8 62 0 64 9 77 57 87 29 6 30 4 26 -20 -3 -14 -2 -26 1 -26 11 0 148 20
171 25 11 2 25 18 32 35 10 26 16 30 47 30 21 0 36 -5 36 -12z m-424 -86 c-4
-12 -23 -23 -49 -31 -23 -6 -75 -23 -114 -37 -71 -25 -73 -27 -73 -60 0 -19 2
-34 6 -34 3 0 52 16 110 35 122 41 124 41 124 15 0 -14 -10 -21 -37 -27 -21
-4 -42 -6 -46 -5 -4 1 -43 -15 -85 -36 -85 -43 -128 -57 -136 -44 -3 5 -8 38
-12 73 l-6 65 103 42 c98 39 210 73 217 67 2 -2 1 -12 -2 -23z m-366 -130 c0
-12 -24 -29 -75 -55 -101 -50 -157 -86 -150 -97 3 -4 50 16 106 47 55 30 106
52 114 49 10 -3 15 -19 15 -43 0 -32 -6 -41 -33 -59 -18 -12 -44 -25 -57 -29
-14 -4 -62 -33 -108 -63 -65 -44 -85 -53 -95 -43 -15 15 6 32 121 96 45 26 82
53 82 61 0 19 -4 18 -48 -9 -99 -63 -164 -99 -168 -94 -3 2 -6 24 -7 48 l-2
43 75 44 c64 39 220 122 228 122 1 0 2 -8 2 -18z m2169 -129 c88 -51 241 -166
247 -185 7 -24 -40 -78 -69 -78 -10 0 -58 28 -105 63 -84 60 -121 84 -169 109
-33 16 -27 52 15 101 20 23 27 22 81 -10z m3291 -172 c0 -6 -27 -46 -60 -90
-83 -110 -167 -246 -187 -301 -11 -32 -25 -50 -42 -58 -153 -66 -298 -126
-616 -254 -250 -100 -929 -333 -945 -323 -8 5 -90 150 -90 160 0 3 9 5 20 5
10 0 24 9 30 20 7 14 21 20 44 20 21 0 40 8 55 24 13 13 38 27 57 31 19 3 37
12 40 20 3 8 26 17 50 21 27 4 48 13 54 24 5 10 26 20 48 24 21 3 46 14 56 25
9 10 34 21 55 25 22 3 41 13 45 21 4 10 20 15 51 15 38 0 45 3 45 20 0 16 7
20 35 20 25 0 43 7 58 23 14 15 38 26 65 30 24 3 49 12 55 20 7 8 29 17 51 20
23 4 44 15 53 27 9 12 25 20 43 20 18 0 35 9 48 24 10 14 32 28 48 32 16 4 46
15 66 25 21 11 46 19 58 19 11 0 25 9 32 20 10 16 24 20 61 20 40 0 50 4 54
20 5 19 11 22 64 34 15 3 29 15 32 26 4 15 14 20 39 20 18 0 41 7 52 15 10 8
39 17 64 21 31 5 46 12 49 24 5 19 31 30 70 30 13 0 24 8 28 20 5 15 15 20 45
20 26 0 43 6 52 18 19 27 68 43 68 23z m-2846 -193 c98 -103 113 -124 99 -132
-13 -7 -32 8 -97 78 -45 48 -87 86 -94 86 -8 0 23 -39 67 -87 75 -81 95 -113
71 -113 -5 0 -10 3 -10 8 -1 8 -65 77 -123 131 -41 39 -64 35 -27 -4 40 -43 8
-27 -47 24 l-53 48 36 41 c19 23 42 42 49 42 7 0 65 -55 129 -122z m-1509
-143 c28 -57 30 -66 28 -170 -1 -60 -11 -184 -22 -275 -38 -293 -89 -631 -97
-639 -2 -2 -31 4 -64 14 -48 15 -77 17 -156 11 l-97 -7 6 133 c8 150 27 239
94 441 52 157 246 561 266 555 7 -2 26 -31 42 -63z m12332 -43 c-16 -47 -12
-52 53 -52 41 0 50 11 50 61 0 53 15 69 66 69 l46 0 -8 -32 c-4 -18 -8 -46 -8
-63 -1 -29 1 -30 44 -30 l45 0 10 55 10 55 54 3 c48 3 53 1 46 -15 -9 -23 -37
-104 -41 -120 -2 -9 -26 -13 -76 -13 -54 0 -69 3 -58 11 11 8 5 9 -25 5 -73
-11 -212 -16 -180 -7 21 6 8 8 -47 6 l-78 -3 0 38 c0 21 3 51 6 68 6 29 10 31
53 34 54 4 60 -7 38 -70z m-151 41 c-2 -10 -8 -46 -11 -80 -7 -61 -7 -61 -42
-65 -29 -4 -37 0 -46 19 -12 28 -11 28 -132 3 -53 -11 -99 -20 -102 -20 -3 0
-3 -13 -1 -29 4 -28 2 -30 -34 -36 -22 -4 -42 -4 -46 0 -3 3 -8 37 -10 75 -5
76 -5 75 71 94 25 6 27 4 27 -25 0 -29 2 -30 31 -24 17 4 64 13 104 20 88 15
91 17 98 55 6 28 9 30 52 30 39 0 46 -3 41 -17z m825 -13 c171 -35 219 -48
219 -59 0 -5 -11 -29 -25 -52 -14 -24 -25 -52 -25 -63 0 -14 -5 -17 -22 -11
-13 3 -33 9 -45 12 -16 4 -23 13 -23 29 0 18 -7 25 -27 30 -16 3 -39 9 -53 14
-14 5 -49 11 -78 15 -42 4 -54 3 -58 -10 -3 -8 -10 -13 -14 -10 -5 3 -11 1
-14 -4 -4 -5 -19 -8 -34 -7 -30 4 -35 25 -19 86 19 71 19 71 218 30z m-13945
-282 c-155 -304 -185 -372 -252 -573 -40 -121 -45 -130 -74 -140 -42 -14 -50
-30 -50 -100 0 -44 -3 -56 -12 -47 -6 6 -11 32 -12 57 -1 47 -5 52 -24 33 -28
-28 -3 -108 34 -108 23 0 63 -59 69 -103 5 -36 1 -53 -32 -117 -37 -72 -40
-75 -77 -78 -34 -3 -60 10 -217 104 -128 77 -179 113 -182 128 -3 19 -4 19
-17 -6 -18 -39 -27 -35 -38 15 l-8 42 -8 -40 c-4 -22 -13 -43 -19 -47 -7 -4
-38 -8 -69 -8 -51 0 -58 2 -58 19 0 11 -3 26 -6 35 -6 16 -1 20 49 30 32 7 35
21 7 29 -18 5 -20 14 -20 90 0 84 0 85 28 95 15 6 21 11 15 11 -7 1 -13 8 -13
16 0 10 10 15 30 15 23 0 30 -4 30 -20 0 -15 7 -20 29 -20 17 0 31 -6 35 -16
11 -28 6 -150 -6 -162 -14 -14 -9 -21 21 -24 21 -3 30 13 95 162 39 91 98 208
130 262 170 278 387 512 616 665 115 77 124 82 138 82 7 1 -49 -121 -132 -281z
m1869 208 c105 -50 286 -198 413 -338 85 -94 262 -330 262 -349 0 -9 -43 -29
-485 -234 -335 -154 -554 -249 -561 -242 -13 12 80 939 99 995 21 61 64 128
96 151 65 47 105 51 176 17z m10765 -16 c0 -24 -10 -29 -130 -70 -128 -44
-150 -56 -150 -83 1 -51 11 -52 121 -8 134 52 155 57 162 37 5 -12 -4 -20 -31
-31 -20 -9 -38 -12 -40 -7 -2 6 -12 7 -23 5 -14 -4 -17 -8 -9 -13 7 -4 -2 -10
-21 -14 -18 -3 -40 -12 -48 -20 -22 -19 -161 -77 -171 -71 -10 6 -30 95 -30
135 0 26 6 31 78 60 42 18 88 36 102 41 14 4 57 19 95 33 85 31 95 32 95 6z
m1690 -22 c0 -5 -12 -29 -26 -54 l-26 -44 36 -15 c19 -8 40 -15 45 -15 24 0
181 -74 174 -81 -8 -8 -140 32 -218 66 -16 7 -51 21 -77 30 -27 10 -48 23 -48
29 1 23 29 88 45 106 15 17 19 17 56 2 21 -8 39 -19 39 -24z m-2110 -132 c0
-21 -22 -42 -79 -73 -124 -67 -184 -110 -175 -124 3 -5 24 4 47 19 77 53 187
113 196 108 5 -3 11 -18 14 -33 3 -16 9 -36 12 -45 5 -14 -6 -23 -57 -47 -34
-17 -85 -49 -113 -70 -109 -87 -136 -104 -148 -91 -15 15 41 64 140 123 65 38
92 67 62 67 -15 0 -126 -68 -177 -109 -48 -38 -55 -35 -67 27 -4 21 -2 39 6
49 46 55 339 227 339 199z m2570 -66 c165 -95 245 -152 248 -177 3 -22 -47
-83 -69 -83 -5 0 -35 14 -67 31 -31 18 -69 38 -84 46 -16 8 -28 19 -28 24 0
14 8 11 56 -22 24 -16 49 -27 54 -24 23 14 6 34 -57 65 -38 18 -80 41 -95 52
-14 10 -31 18 -37 18 -22 0 -10 -21 24 -42 61 -35 30 -31 -52 7 -43 21 -80 39
-82 41 -10 9 62 124 78 124 3 0 53 -27 111 -60z m-6766 -107 c40 -55 76 -142
76 -182 0 -49 -21 -91 -54 -108 -39 -21 -148 -70 -199 -88 l-38 -14 -28 62
c-15 34 -41 95 -56 136 l-29 74 29 23 c17 14 68 51 114 84 109 78 136 80 185
13z m7161 -151 c123 -93 152 -117 202 -159 56 -48 62 -60 38 -69 -10 -4 -33
10 -63 38 -72 68 -173 139 -185 131 -7 -4 0 -15 17 -27 71 -52 196 -158 196
-167 0 -19 -31 -7 -72 29 -24 20 -67 55 -96 77 -29 21 -52 43 -52 47 0 4 -9 8
-20 8 -23 0 -26 -10 -7 -29 10 -11 7 -12 -13 -6 -32 9 -90 53 -90 68 0 11 79
97 90 97 3 0 28 -17 55 -38z m-8421 -295 c10 -7 18 -26 19 -42 3 -68 -4 -114
-18 -129 -8 -8 -15 -19 -15 -25 0 -6 -9 -11 -19 -11 -11 0 -23 -4 -26 -10 -12
-19 -56 -5 -99 30 -24 19 -52 40 -62 47 -18 11 -18 12 1 13 32 1 57 43 45 75
-13 33 -13 31 6 49 20 20 142 22 168 3z m-4125 -30 c5 -13 11 -34 13 -46 3
-26 60 -4 -527 -206 -374 -129 -549 -191 -573 -204 -25 -13 -34 -4 -21 20 5
11 20 19 33 19 13 0 29 6 35 14 7 8 37 18 67 22 42 5 54 10 54 24 0 13 11 19
44 24 24 4 47 13 49 20 3 8 26 17 51 20 28 5 46 12 46 21 0 16 22 25 60 25 20
0 31 6 35 20 5 16 15 20 50 20 37 0 44 3 49 25 6 22 12 25 50 25 35 0 45 4 49
20 4 15 14 20 39 20 22 0 37 6 46 20 9 15 23 20 52 20 27 0 47 7 61 21 11 11
36 23 55 26 24 4 34 11 34 23 0 24 13 28 83 29 51 1 58 -1 66 -22z m11922 -34
c63 -31 179 -100 259 -154 371 -251 611 -507 852 -909 257 -428 392 -821 455
-1328 22 -175 25 -702 5 -832 -31 -196 -84 -345 -143 -394 -41 -35 -119 -56
-216 -58 -74 -2 -85 1 -124 27 -70 46 -214 160 -381 302 l-156 134 -7 70 c-7
69 -7 70 48 192 66 147 70 166 68 333 -1 142 -6 168 -42 199 -12 11 -19 14
-15 8 4 -8 2 -13 -5 -13 -8 0 -6 -6 4 -18 18 -20 23 -87 8 -97 -11 -6 -201
204 -201 221 0 6 7 17 15 24 12 10 26 1 83 -54 38 -36 71 -63 75 -60 8 8 -18
34 -34 34 -7 0 -4 6 7 14 17 13 20 13 26 -2 4 -9 7 8 7 38 -1 30 -3 49 -6 42
-2 -6 -9 -9 -15 -6 -6 4 -6 -2 1 -14 15 -28 14 -37 -2 -23 -8 6 -16 8 -20 5
-3 -3 -37 20 -76 51 -63 51 -71 61 -71 91 0 35 16 44 38 22 9 -9 12 -9 12 0 0
17 -50 28 -60 13 -8 -13 -19 5 -26 42 -4 18 11 24 21 7 8 -14 145 -94 150 -88
3 2 -38 32 -91 67 -90 58 -96 64 -92 91 3 21 0 30 -9 30 -7 0 -13 -8 -13 -17
0 -16 -2 -16 -10 -3 -8 11 -9 9 -5 -11 9 -36 -9 -38 -294 -23 l-175 9 -48 110
c-26 61 -46 119 -45 130 3 26 199 125 262 133 40 4 47 1 75 -28 32 -34 43 -31
13 3 -10 11 -13 17 -6 13 7 -3 28 -7 48 -8 19 -1 35 -6 35 -11 0 -5 -11 -7
-24 -5 -19 4 -25 0 -29 -18 -6 -35 43 -109 57 -85 4 5 27 4 58 -5 70 -18 73
-11 4 11 -69 22 -92 45 -76 75 12 22 17 22 80 5 25 -7 25 -7 5 9 -20 17 -19
17 7 13 15 -2 25 -1 23 4 -3 4 0 9 5 11 6 2 -15 4 -47 4 -87 1 -131 12 -144
35 -21 41 -5 51 76 47 55 -2 72 0 61 8 -9 6 -11 15 -6 23 6 11 11 8 20 -9 24
-46 19 -10 -6 41 -30 61 -92 131 -107 122 -6 -3 -7 -1 -3 5 4 7 3 12 -2 12 -4
0 -17 8 -28 18 -10 10 -54 46 -97 80 -76 60 -80 62 -137 62 -56 0 -65 4 -158
64 -54 35 -117 70 -140 77 l-42 12 6 181 c3 100 9 298 13 441 7 255 8 261 34
316 32 65 117 151 179 179 73 33 113 27 239 -37z m-8793 -7 c3 -4 1 -38 -6
-77 -11 -66 -11 -74 8 -104 l20 -32 -49 -75 c-101 -155 -186 -187 -346 -127
-32 12 -76 38 -98 58 -47 42 -100 149 -115 229 -8 46 -7 54 8 62 25 14 208 59
277 69 63 9 291 7 301 -3z m6883 -78 c40 -80 42 -85 31 -133 -14 -69 -76 -213
-121 -282 -21 -32 -101 -137 -178 -234 -77 -97 -147 -195 -156 -218 -31 -77
-39 -175 -22 -268 25 -131 144 -453 129 -348 -4 28 -4 29 7 8 7 -13 18 -23 26
-23 21 0 12 48 -31 156 -60 156 -79 237 -74 328 6 107 40 176 164 332 192 241
227 296 289 448 15 37 16 38 29 20 17 -24 104 -230 214 -504 100 -250 111
-308 72 -397 -12 -28 -31 -60 -43 -72 -20 -18 -162 -89 -359 -179 -62 -28 -68
-34 -68 -61 0 -17 -9 -45 -20 -63 -11 -18 -20 -36 -20 -40 0 -5 16 -26 36 -48
l36 -40 -14 -57 c-16 -65 -42 -84 -54 -39 -4 16 -13 26 -25 26 -16 0 -17 -4
-8 -30 14 -40 8 -57 -13 -37 -15 15 -16 15 -21 -3 -3 -10 -21 -26 -41 -34 -33
-14 -36 -18 -30 -43 12 -48 24 -75 61 -136 34 -56 37 -59 71 -55 l35 4 -6
-107 c-4 -79 -11 -117 -26 -147 -13 -26 -23 -73 -29 -137 -7 -88 -6 -100 11
-121 10 -13 25 -24 33 -24 9 0 60 25 115 55 55 30 105 55 112 55 19 -1 -41
-46 -113 -87 -36 -19 -76 -46 -90 -58 -24 -21 -499 -292 -693 -395 -93 -50
-102 -52 -156 -47 -104 9 -219 85 -265 176 -44 85 -72 386 -62 681 11 356 53
619 141 885 194 585 448 940 910 1271 75 54 155 104 167 104 4 0 26 -37 49
-82z m-7890 -245 c2 -172 5 -183 53 -200 58 -19 76 -40 76 -84 0 -21 -4 -41
-10 -44 -5 -3 4 -24 20 -47 17 -23 30 -47 30 -54 0 -19 -50 -75 -77 -85 -42
-16 -32 -87 42 -309 71 -210 177 -440 264 -572 51 -78 75 -94 100 -65 8 11 24
12 72 4 l61 -10 -7 -44 c-6 -42 -6 -43 22 -43 52 0 56 -9 45 -95 -8 -58 -7
-83 1 -97 20 -34 263 -244 347 -300 44 -29 79 -56 80 -59 0 -4 -17 -14 -37
-22 -34 -13 -40 -13 -76 6 -31 16 -43 18 -63 8 -21 -9 -30 -8 -50 8 -21 16
-30 18 -50 9 -18 -9 -30 -8 -48 1 -15 9 -38 11 -65 6 -26 -4 -53 -2 -71 5 -22
9 -37 9 -61 1 -17 -6 -36 -7 -43 -3 -6 4 -33 8 -61 9 -71 2 -151 17 -169 32
-11 9 -20 10 -35 1 -16 -8 -29 -7 -56 4 -24 11 -43 12 -59 6 -17 -6 -30 -4
-44 6 -18 12 -47 13 -179 6 -131 -8 -161 -7 -175 5 -13 12 -23 12 -57 2 -32
-9 -43 -9 -56 1 -10 8 -29 10 -59 6 -29 -5 -47 -3 -51 4 -4 7 -21 9 -45 5 -28
-5 -46 -2 -64 10 -21 14 -31 15 -57 6 -26 -9 -37 -8 -55 4 -18 11 -29 12 -53
4 -25 -9 -36 -8 -56 5 -23 15 -28 15 -56 1 -28 -15 -32 -15 -49 0 -14 13 -29
15 -70 9 l-52 -7 6 29 c40 192 60 487 53 794 -6 271 -20 427 -63 697 -15 92
-28 179 -28 192 -1 27 -58 5 654 255 195 69 361 125 368 125 9 1 12 -31 13
-126z m-4124 -11 c30 -19 33 -60 8 -144 -33 -116 -43 -140 -57 -136 -18 6 -27
52 -35 166 -5 84 -3 106 8 113 17 11 60 11 76 1z m7408 -21 c111 -50 206 -246
192 -396 -7 -71 -53 -253 -104 -415 -27 -84 -46 -124 -70 -151 -88 -97 -294
-117 -402 -39 -73 53 -133 187 -146 328 -11 105 0 160 33 175 58 25 104 62
134 108 19 30 39 49 50 49 47 0 139 66 173 125 33 55 65 150 65 190 0 51 12
55 75 26z m-7229 -111 c-3 -60 -9 -117 -13 -126 -6 -16 -138 -84 -163 -84 -17
0 -7 34 45 153 63 143 79 167 111 167 l27 0 -7 -110z m6978 80 c16 -85 -36
-280 -76 -280 -10 0 -18 1 -18 3 0 2 9 43 20 93 11 49 20 112 20 140 0 49 12
74 36 74 6 0 14 -14 18 -30z m-8475 -239 l94 -88 -18 -74 c-12 -52 -34 -101
-73 -164 -66 -108 -84 -125 -128 -125 -42 0 -47 -11 -35 -74 8 -43 6 -52 -15
-84 -47 -69 -45 -108 7 -136 36 -19 36 -19 81 2 54 27 70 27 91 4 13 -14 26
-17 59 -13 53 8 59 26 14 48 -20 9 -36 24 -36 34 0 9 -7 22 -15 29 -17 14 -9
25 106 148 l68 72 85 0 86 0 25 -50 c14 -27 25 -54 25 -59 0 -6 -27 -20 -60
-32 -34 -12 -70 -33 -82 -48 -19 -24 -20 -34 -13 -156 4 -71 7 -145 8 -163 2
-31 -1 -35 -50 -56 -29 -12 -55 -25 -59 -28 -3 -4 15 -58 41 -120 26 -62 63
-155 81 -207 18 -51 38 -99 44 -106 12 -14 45 -114 54 -162 4 -27 2 -33 -13
-33 -10 0 -23 12 -30 28 -30 63 -52 132 -46 142 3 5 -1 31 -10 57 -19 56 -145
376 -151 382 -2 2 -37 -11 -78 -29 -72 -32 -77 -33 -129 -21 -65 14 -154 82
-203 153 -42 62 -49 122 -41 393 5 163 12 241 32 350 14 77 29 151 34 165 5
14 12 42 16 62 5 32 10 37 38 41 96 12 96 12 196 -82z m6676 -87 c23 -9 45
-57 45 -99 0 -45 0 -45 -235 -236 -262 -212 -321 -257 -356 -264 -50 -11 -80
26 -125 159 -46 134 -32 166 93 218 48 20 189 79 313 132 231 98 237 100 265
90z m-3026 -146 c84 -424 87 -731 10 -1168 -30 -174 -35 -190 -64 -190 -13 0
-27 5 -31 11 -4 7 -22 9 -45 6 -30 -4 -41 -1 -48 11 -9 15 -12 15 -46 -1 -33
-16 -37 -16 -61 0 -21 13 -31 14 -61 5 -33 -10 -38 -9 -51 9 -10 15 -21 19
-38 15 -13 -4 -53 -9 -89 -12 -50 -4 -70 -1 -90 12 -24 16 -27 16 -46 -2 -21
-18 -21 -18 -40 5 -13 15 -26 22 -39 18 -24 -6 -55 25 -294 302 -117 135 -175
209 -171 220 23 76 37 195 31 284 -3 54 -4 108 -1 120 5 19 42 35 263 110 141
48 394 134 562 192 168 57 313 104 322 104 12 1 19 -13 27 -51z m10328 -412
c-22 -18 -27 -34 -37 -121 -16 -132 -12 -171 16 -168 30 3 21 -27 -17 -61 -42
-37 -44 -62 -13 -154 24 -75 26 -86 14 -127 -7 -25 -16 -45 -20 -45 -4 0 -20
30 -35 66 -48 113 -96 119 -141 19 -19 -41 -23 -63 -18 -90 7 -39 -3 -45 -28
-16 -24 28 -33 49 -53 121 -9 36 -22 71 -27 78 -15 18 -35 15 -41 -8 -9 -36
-30 -23 -24 15 5 29 1 40 -19 60 -19 19 -23 31 -18 52 10 43 13 44 51 28 20
-8 38 -13 41 -10 3 3 24 33 46 67 32 49 63 78 141 133 90 64 102 76 118 121
20 55 79 109 85 78 2 -9 -7 -26 -21 -38z m1205 -3 c39 -35 16 -55 -108 -92
-39 -12 -83 -21 -98 -21 -22 0 -26 4 -26 29 0 36 11 45 96 75 84 29 112 31
136 9z m-8264 -59 c20 -4 39 -19 54 -40 33 -49 94 -76 165 -73 42 2 58 -1 61
-12 3 -8 49 -141 103 -296 55 -155 99 -289 99 -299 0 -32 -44 -83 -95 -111
-70 -38 -177 -44 -272 -15 -81 25 -288 129 -341 171 -81 63 -126 193 -120 340
5 119 36 195 107 265 68 67 144 89 239 70z m1124 -330 c138 -273 152 -305 143
-330 -14 -39 -57 -54 -84 -30 -39 36 -100 174 -150 341 -48 161 -91 328 -91
350 1 23 37 -43 182 -331z m7282 294 c38 -54 13 -71 -109 -72 l-70 -1 0 30 c0
27 5 32 50 47 71 24 110 23 129 -4z m-413 -27 c37 -23 60 -29 117 -33 61 -3
76 -8 109 -34 43 -35 59 -77 45 -115 -11 -29 -192 -143 -218 -137 -18 4 -157
315 -150 335 9 21 49 15 97 -16z m-7197 -113 c19 -40 69 -147 111 -238 43 -91
117 -255 165 -365 48 -110 113 -254 145 -320 76 -160 165 -355 165 -363 0 -9
-260 510 -299 598 -19 41 -73 156 -121 255 -49 99 -100 207 -115 240 -30 67
-95 243 -95 256 0 22 13 3 44 -63z m7720 41 c-3 -5 1 -12 10 -15 8 -3 17 -12
20 -20 3 -9 1 -12 -4 -9 -6 3 -10 1 -10 -4 0 -6 4 -11 10 -11 5 0 6 -8 3 -17
-4 -9 -8 -12 -10 -6 -3 7 -16 8 -41 2 -55 -13 -166 -11 -180 3 -18 18 -14 56
7 68 11 5 59 10 107 10 81 0 86 1 73 18 -13 15 -12 16 3 3 10 -7 15 -17 12
-22z m-13511 -36 c-17 -125 -74 -279 -122 -333 -28 -31 -26 -18 14 85 29 73
41 126 52 210 6 56 17 75 44 75 15 0 17 -6 12 -37z m-132 -79 c21 2 41 0 44
-5 7 -11 -39 -23 -65 -16 -24 6 -27 2 -45 -68 -46 -174 -188 -351 -315 -390
-25 -8 -25 -7 -7 13 11 11 16 26 12 31 -3 6 7 17 22 23 15 7 41 26 56 41 22
23 27 35 22 56 -5 26 -4 27 24 23 25 -3 33 1 50 29 25 41 28 89 5 89 -8 0 -12
-5 -9 -11 7 -11 -22 -49 -36 -49 -5 0 -1 16 8 35 9 19 23 35 30 35 7 0 19 13
28 30 8 16 24 34 34 40 23 12 51 64 51 95 0 13 9 26 23 32 19 9 22 7 25 -14 3
-21 7 -23 43 -19z m620 -91 c-10 -37 -10 -61 0 -110 11 -54 10 -70 -5 -124
-25 -91 -43 -129 -61 -129 -12 0 -15 5 -9 23 10 32 10 36 -16 120 -18 59 -28
77 -42 77 -24 0 -24 -35 2 -128 24 -87 24 -82 1 -82 -14 0 -20 10 -25 41 -9
56 -23 80 -42 72 -13 -5 -15 -16 -9 -59 l6 -54 -33 6 c-52 9 -55 11 -62 40 -4
15 -28 73 -53 128 -30 64 -42 101 -35 104 7 2 12 10 12 18 0 27 15 12 65 -64
44 -67 54 -77 79 -77 26 0 32 5 48 50 14 39 16 66 12 123 -5 52 -3 72 5 72 7
0 10 -4 6 -9 -3 -6 10 -41 29 -78 18 -37 42 -90 51 -116 13 -33 23 -47 34 -45
27 5 24 59 -8 131 -17 37 -27 67 -24 67 4 0 2 5 -5 12 -7 7 -12 16 -12 22 0 5
9 0 20 -12 29 -30 49 -27 62 9 16 46 22 26 9 -28z m-1611 -272 c0 -5 -14 -12
-31 -16 -20 -5 -34 -16 -40 -32 -13 -36 23 -107 71 -142 46 -32 64 -71 56
-116 -4 -19 -2 -36 4 -40 5 -3 10 -24 10 -45 0 -22 7 -45 16 -55 33 -32 95
-56 142 -55 45 2 115 2 220 -1 52 -1 73 2 115 20 44 18 114 14 126 -6 9 -16
10 -16 11 -1 0 9 20 80 45 157 52 162 35 149 185 130 47 -5 88 -16 92 -22 4
-7 8 -34 8 -61 0 -40 2 -46 14 -37 11 9 13 4 12 -26 -1 -34 2 -38 21 -35 20 3
21 1 12 -30 -11 -41 -11 -48 2 -26 15 27 19 81 7 96 -10 11 -14 9 -25 -10 -10
-16 -12 -17 -7 -3 4 11 10 46 12 78 l4 57 37 0 c28 0 44 -7 66 -30 28 -30 30
-30 37 -10 5 13 15 20 25 18 16 -3 18 -14 14 -106 -2 -56 1 -102 5 -102 5 0 9
17 9 37 0 33 3 38 23 36 21 -3 22 1 22 62 0 51 3 65 15 65 8 0 15 -6 15 -14 0
-23 20 -29 39 -12 18 16 51 22 51 9 0 -4 -18 -26 -41 -49 -22 -23 -44 -56 -48
-75 -4 -19 -11 -45 -16 -59 -6 -20 -5 -23 6 -12 7 6 21 12 30 12 36 0 604
-644 661 -750 83 -154 46 -379 -77 -473 -63 -48 -282 -155 -400 -197 -265 -93
-561 -131 -774 -100 -59 8 -82 6 -173 -16 l-28 -6 -1 73 c0 66 -15 178 -18
138 0 -9 -8 -22 -16 -29 -9 -8 -15 -30 -15 -59 0 -25 -5 -53 -11 -61 -7 -11
-9 1 -7 42 4 79 -16 83 -28 6 -7 -42 -7 -61 0 -63 6 -2 24 -6 40 -10 23 -5 27
-8 15 -16 -7 -5 -29 -9 -46 -9 -35 0 -55 22 -67 72 -5 23 -30 38 -178 111
-204 101 -349 194 -473 304 -195 174 -434 485 -503 656 -20 49 -23 72 -19 116
8 70 63 183 122 249 49 54 92 76 306 152 61 22 115 43 120 46 5 2 -8 33 -27
67 -43 76 -74 144 -74 163 0 21 20 18 104 -16 42 -17 81 -28 86 -25 17 11 11
44 -11 55 -27 15 -21 20 38 30 68 11 83 11 83 1z m12738 -156 c30 -25 30 -26
28 -116 -2 -89 -3 -93 -34 -120 -104 -93 -242 52 -173 181 20 39 83 80 123 80
14 0 40 -11 56 -25z m1833 1 c116 -14 215 -51 238 -89 9 -14 13 -46 12 -91 -2
-64 0 -73 31 -115 29 -40 33 -55 37 -119 4 -80 -12 -112 -53 -112 -12 0 -63
34 -115 74 -51 41 -132 96 -178 123 -46 26 -95 56 -108 65 -22 17 -115 229
-115 263 0 19 102 20 251 1z m-12021 -197 c135 -11 246 -22 247 -23 8 -8 -59
-202 -76 -220 -33 -35 -113 -59 -181 -54 -78 6 -124 38 -208 148 -37 47 -81
103 -99 124 -18 22 -33 44 -33 49 0 4 24 6 53 3 28 -4 162 -16 297 -27z
m10886 -5 c49 -24 87 -66 128 -146 32 -61 36 -79 36 -142 0 -167 -89 -276
-225 -276 -137 0 -251 122 -263 281 -10 146 61 260 183 290 52 12 106 10 141
-7z m1164 -238 c58 -46 131 -110 163 -143 69 -71 80 -112 52 -190 -10 -26 -21
-72 -24 -101 l-6 -54 -98 77 c-74 58 -97 81 -92 94 4 9 9 24 12 33 4 14 -48
154 -122 331 -23 56 -3 48 115 -47z m-7341 -374 c19 -9 48 -34 64 -54 29 -36
30 -38 16 -75 -15 -39 -45 -55 -60 -31 -6 9 -9 7 -9 -9 0 -26 -16 -29 -44 -8
-29 22 -82 19 -99 -5 -16 -23 -27 -16 -27 17 0 18 6 23 24 23 18 0 25 6 28 23
2 17 11 23 38 28 35 5 35 6 8 13 -34 10 -93 -9 -112 -36 -14 -20 -15 -20 -38
-2 -25 20 -26 54 -2 54 8 0 14 5 14 10 0 6 -5 10 -12 10 -17 0 9 25 47 44 39
21 121 19 164 -2z m6251 -262 c11 -6 41 -12 67 -14 90 -7 247 -87 310 -159 16
-18 35 -31 44 -29 16 3 204 -141 271 -208 23 -23 58 -50 77 -60 48 -25 71 -54
72 -93 2 -30 2 -30 6 -4 2 15 10 27 16 27 16 -1 47 -25 47 -37 0 -5 17 -19 39
-30 40 -22 475 -345 598 -445 126 -103 193 -235 195 -388 2 -110 -11 -138
-104 -225 -151 -142 -296 -231 -534 -326 -263 -105 -452 -144 -757 -156 -152
-6 -160 -7 -200 -34 l-42 -28 -10 22 c-5 12 -15 26 -22 30 -8 5 -13 29 -13 62
0 30 -4 55 -10 55 -5 0 -10 -8 -10 -17 -1 -16 -2 -16 -15 1 -14 18 -15 16 -15
-26 0 -26 -3 -54 -6 -63 -5 -11 0 -18 15 -22 38 -10 16 -28 -37 -31 -38 -2
-52 0 -52 10 0 8 -19 32 -42 55 -34 32 -61 47 -125 67 -46 14 -120 38 -165 52
-181 56 -532 263 -726 426 -200 169 -422 412 -471 518 -35 76 -36 217 -2 303
39 98 50 108 271 225 636 336 790 416 794 411 1 -2 17 -30 35 -62 18 -31 36
-55 40 -52 5 2 14 -7 21 -20 7 -13 19 -26 27 -29 11 -5 11 -1 -2 16 -8 13 -15
33 -15 45 0 19 6 23 28 23 16 0 37 7 48 15 18 13 16 14 -26 16 -25 1 -58 4
-75 8 -26 5 -30 10 -30 41 l0 35 66 -1 c38 -1 79 -9 97 -18 19 -10 33 -12 37
-6 3 6 -1 13 -9 16 -22 8 -60 74 -50 84 46 42 278 55 344 20z m-14500 -285
c29 -42 29 -44 10 -50 -11 -3 -20 -10 -20 -14 0 -4 38 -34 84 -65 70 -49 171
-146 151 -146 -3 0 -38 21 -78 46 -115 74 -117 75 -117 64 0 -6 18 -46 40 -90
22 -44 38 -80 35 -80 -17 0 -80 88 -116 162 -39 80 -45 86 -68 82 -21 -4 -31
3 -54 36 -15 23 -25 46 -21 51 8 14 107 58 116 53 4 -3 21 -25 38 -49z m373
-401 c34 -31 116 -97 182 -146 66 -50 122 -92 124 -95 3 -2 -17 -25 -43 -52
l-48 -49 -87 58 c-48 32 -98 70 -111 84 -14 15 -52 48 -85 74 -58 45 -115 99
-115 109 0 14 87 72 108 73 8 0 42 -25 75 -56z m325 -383 c15 -10 51 -31 81
-45 l53 -27 33 35 c36 40 50 43 101 21 39 -16 37 -31 -10 -72 -14 -13 -26 -27
-26 -33 0 -23 -68 -9 -126 26 -32 20 -79 48 -104 62 -57 32 -53 29 -45 41 8
15 13 14 43 -8z m427 -81 c48 -21 179 -60 282 -85 l112 -26 -33 -52 c-18 -29
-35 -59 -39 -68 -5 -15 -9 -15 -52 -2 -43 15 -46 17 -40 44 5 21 3 29 -8 29
-7 0 -40 8 -73 19 -96 30 -177 46 -181 36 -12 -34 -20 -36 -67 -16 l-47 21 16
30 c8 16 20 30 25 30 6 0 10 5 10 12 0 6 8 20 17 30 16 18 33 18 78 -2z m1297
-87 c-7 -41 -18 -51 -74 -63 -56 -12 -71 -7 -43 14 10 7 14 15 9 18 -5 3 -27
-9 -48 -28 -45 -39 -38 -41 58 -19 35 8 71 12 80 9 9 -3 16 -1 16 5 0 6 9 11
21 11 36 0 14 -24 -30 -33 -38 -8 -62 -29 -48 -44 3 -3 29 1 56 8 47 12 51 15
51 43 0 17 5 38 10 46 8 12 10 9 10 -12 0 -58 -15 -76 -86 -97 -79 -25 -74
-25 -74 -6 0 9 -6 12 -16 8 -13 -5 -13 -7 -2 -14 9 -6 7 -9 -9 -9 -13 0 -23 4
-23 9 0 5 10 16 23 25 22 17 22 17 -12 11 -18 -3 -42 -5 -52 -5 -12 0 -19 -7
-19 -19 0 -11 -4 -23 -10 -26 -13 -8 -12 21 3 70 21 69 39 85 114 105 98 25
101 25 95 -7z m-746 -69 c-8 -29 -7 -29 108 -4 82 18 187 27 175 15 -3 -2 -50
-16 -105 -30 -54 -15 -103 -30 -107 -34 -12 -12 11 -25 91 -50 41 -12 71 -25
68 -28 -9 -10 -145 9 -163 23 -11 8 -13 13 -5 14 6 0 12 4 12 9 0 5 -27 9 -60
8 -49 0 -61 -3 -66 -19 -5 -16 -12 -18 -52 -12 -26 4 -48 8 -50 9 -7 5 33 83
54 105 19 21 31 25 65 22 37 -4 40 -6 35 -28z m11348 -828 c44 -40 46 -45 27
-51 -40 -12 -20 -30 77 -69 110 -44 252 -118 235 -123 -6 -2 -65 14 -130 37
-66 22 -123 40 -127 40 -13 0 -5 -19 29 -63 39 -51 41 -57 20 -57 -16 0 -82
63 -134 129 -29 36 -38 42 -61 37 -20 -4 -38 3 -69 25 -22 17 -41 34 -41 38 0
15 104 102 120 101 3 -1 27 -20 54 -44z m3135 -412 c1 -16 -16 -32 -66 -62
-98 -59 -222 -116 -231 -108 -4 4 -7 46 -7 93 l0 86 110 68 c106 66 154 88
108 50 -15 -12 -20 -25 -16 -40 8 -31 -21 -68 -78 -97 -54 -27 -71 -25 -51 6
7 11 8 20 3 20 -10 0 -65 -80 -59 -86 3 -2 43 16 91 41 57 29 89 40 93 33 4
-6 -3 -18 -15 -27 -14 -11 -20 -23 -15 -34 8 -22 10 -22 72 14 42 24 52 34 47
49 -3 11 -9 48 -13 82 -6 47 -11 62 -22 60 -10 -1 -8 3 5 13 19 16 20 14 32
-62 6 -43 12 -88 12 -99z m-2601 75 c48 -22 114 -52 147 -65 33 -14 69 -29 80
-34 11 -5 47 -18 80 -29 33 -11 73 -24 88 -30 l29 -11 -26 -30 c-13 -17 -35
-48 -47 -70 -13 -22 -27 -40 -33 -40 -17 0 -100 33 -116 46 -8 6 -40 20 -70
29 -82 26 -148 56 -215 96 -33 20 -77 42 -97 50 -21 7 -38 18 -38 23 0 18 94
106 113 106 10 0 57 -18 105 -41z m1957 -216 c-16 -9 -66 -35 -110 -59 -44
-23 -81 -47 -83 -52 -2 -6 46 -16 105 -23 59 -7 99 -15 88 -16 -11 -2 -43 -11
-72 -20 -44 -14 -62 -15 -115 -5 -109 20 -132 20 -136 -3 -7 -36 -23 -45 -80
-45 l-55 0 7 42 c4 23 15 61 25 84 16 35 24 42 57 47 22 4 49 7 62 7 20 0 21
-3 12 -21 -7 -11 -9 -23 -6 -26 3 -3 56 15 118 39 139 56 168 66 193 67 15 0
13 -3 -10 -16z m-1183 -35 l57 -12 -31 -55 c-52 -94 -48 -92 -158 -76 -147 22
-230 48 -230 73 0 16 10 15 120 -12 52 -12 97 -22 101 -20 3 1 18 28 33 58 16
31 33 56 39 56 6 0 37 -5 69 -12z m686 -33 c7 -6 -47 -148 -60 -156 -7 -5 -35
-9 -62 -9 -48 0 -48 0 -44 30 3 17 2 30 -1 30 -3 1 -75 3 -158 6 l-152 6 -12
-26 c-11 -24 -17 -26 -76 -26 -72 0 -70 -3 -36 80 33 81 7 75 319 72 153 -2
280 -5 282 -7z"/>
<path d="M23501 6236 c-10 -12 -10 -36 -1 -113 14 -123 17 -133 40 -133 26 0
27 11 21 140 -6 107 -7 115 -27 118 -11 2 -26 -4 -33 -12z"/>
<path d="M9886 3825 c-10 -7 -16 -18 -15 -24 6 -15 202 -171 215 -171 6 0 19
11 28 25 16 24 16 24 -83 105 -55 44 -106 80 -113 80 -7 0 -21 -7 -32 -15z"/>
<path d="M23073 2026 c-12 -12 -19 -27 -15 -33 10 -15 236 -114 267 -116 18
-1 31 6 45 29 l20 31 -128 52 c-70 29 -136 54 -147 56 -11 2 -30 -6 -42 -19z"/>
<path d="M20205 20438 c-109 -10 -149 -28 -121 -56 12 -12 26 -12 103 -1 151
23 382 18 578 -14 94 -15 197 -34 230 -41 33 -8 63 -12 67 -10 5 3 8 20 8 39
0 31 -2 33 -32 33 -18 0 -107 10 -198 21 -178 22 -417 42 -490 40 -25 -1 -90
-6 -145 -11z"/>
</g>
</svg>
